<?xml version="1.0" encoding="UTF-8"?>
<svg width="294px" height="92px" viewBox="0 0 294 92" version="1.1" xmlns="http://www.w3.org/2000/svg" xmlns:xlink="http://www.w3.org/1999/xlink">
    <title>nami</title>
    <g id="Page-1" stroke="none" stroke-width="1" fill="none" fill-rule="evenodd">
        <g id="nami" fill="#0053A0" fill-rule="nonzero">
            <path d="M89.01,28.26 C95.37,43.79 92.38,63.62 81.53,75.4 C70.5,88.68 50.67,94.48 33.27,89.06 C17.93,84.76 5.96,71.66 1.84,56.88 C-2.46,37.98 4.46,19.65 20.17,8.99 C31.77,0.57 49.73,-1.49 63.38,3.75 C75.35,8.8 83.21,17.04 89.01,28.26 Z M47.85,5.25 C34.19,6.37 22.41,14.41 16.61,26.95 C11.18,40.79 13.24,59.31 24.09,69.41 C28.02,72.78 31.39,76.33 35.69,77.45 C27.08,68.47 20.72,57.06 20.91,43.59 C21.84,28.62 31.01,13.84 44.66,8.05 C45.79,7.86 46.35,8.43 45.97,9.36 C36.06,16.28 29.88,26.76 27.64,38.92 C25.58,54.63 32.5,68.85 44.48,77.83 C36.63,66.98 33.07,48.84 40.92,36.67 C45.97,27.69 54.95,20.02 64.87,18.9 L64.87,20.39 C55.7,26.19 48.41,33.11 44.85,43.59 C40.55,55.38 43.54,70.34 51.96,79.51 C48.03,69.22 48.97,56.13 55.51,47.33 C59.25,42.66 64.11,36.11 70.29,35.73 L70.29,37.03 C65.99,40.4 62.43,45.45 59.44,50.13 C54.95,59.67 54.39,74.26 60.94,82.87 C63.56,84.18 65.8,81.93 68.05,80.81 C68.98,77.44 66.17,74.45 66.93,70.52 C70.86,64.34 72.54,56.48 70.67,49 L71.42,48.25 C73.1,48.81 74.04,50.31 74.98,51.43 C77.6,55.36 78.91,61.53 76.29,65.83 C74.98,69.39 70.11,73.13 72.92,77.06 C78.72,73.32 82.65,67.33 85.27,61.35 C90.51,49.75 88.63,33.66 81.72,23.75 C73.48,12.55 62.07,5.44 47.85,5.25 Z" id="Shape"></path>
            <g id="Group" transform="translate(108.000000, 10.000000)">
                <path d="M38.99,73.48 L24.46,73.48 L24.46,16.39 C24.46,14.25 23.89,12.65 22.74,11.56 C21.6,10.48 19.79,9.94 17.33,9.94 L14.71,9.94 L14.71,73.48 L0.18,73.48 L0.18,1.31 L11.71,1.31 L13.3,4.52 C14.61,3.41 16.22,2.59 18.12,2.08 C20.02,1.56 22.09,1.31 24.35,1.31 C28.95,1.31 32.53,2.59 35.12,5.16 C37.7,7.72 38.99,11.27 38.99,15.8 L38.99,73.48 Z" id="Path"></path>
                <path d="M63.42,25.12 L63.42,17.3 C63.42,14.27 63.83,12.14 64.66,10.92 C65.49,9.7 67.02,9.09 69.27,9.09 C71.32,9.09 72.78,9.72 73.65,10.96 C74.52,12.21 74.95,14.32 74.95,17.29 L74.95,25.11 L63.42,25.11 L63.42,25.12 Z M89.48,20.26 C89.48,13.45 87.87,8.47 84.65,5.3 C81.43,2.14 76.28,0.56 69.19,0.56 C62.58,0.56 57.55,2.25 54.09,5.63 C50.63,9.01 48.9,13.89 48.9,20.27 L48.9,73.48 L63.43,73.48 L63.43,34.68 L74.96,34.68 L74.96,73.48 L89.49,73.48 L89.49,20.26 L89.48,20.26 Z" id="Shape"></path>
                <path d="M160.34,73.48 L145.82,73.48 L145.82,13.78 C145.82,12.5 145.47,11.46 144.76,10.66 C144.06,9.86 143.07,9.46 141.8,9.46 L137.19,9.46 L137.19,73.47 L122.85,73.47 L122.85,13.77 C122.85,12.49 122.5,11.45 121.79,10.65 C121.09,9.85 120.1,9.45 118.83,9.45 L114.22,9.45 L114.22,73.46 L99.7,73.46 L99.7,1.29 L111.32,1.29 L112.81,4.5 C113.72,3.56 115.33,2.79 117.64,2.19 C119.95,1.59 122.17,1.29 124.29,1.29 C126.84,1.29 129,1.61 130.77,2.25 C132.54,2.89 133.89,3.8 134.83,4.97 C136.2,3.8 137.85,2.9 139.79,2.25 C141.73,1.61 143.71,1.29 145.73,1.29 C150.2,1.29 153.75,2.51 156.39,4.95 C159.02,7.39 160.34,10.84 160.34,15.32 L160.34,73.48 Z" id="Path"></path>
                <polygon id="Path" points="185.9 73.48 171.37 73.48 171.37 1.31 185.9 1.31"></polygon>
            </g>
        </g>
    </g>
</svg>